<svg width="70" height="70" viewBox="0 0 70 70" fill="none" xmlns="http://www.w3.org/2000/svg">
<path d="M33.2679 5C34.0378 3.66667 35.9622 3.66666 36.7321 5L61.8468 48.5C62.6166 49.8333 61.6543 51.5 60.1147 51.5H9.88526C8.34566 51.5 7.38341 49.8333 8.15321 48.5L33.2679 5Z" stroke="black" stroke-width="2"/>
<path d="M33.031 35.224L32.039 20.6H37.991L36.999 35.224H33.031ZM35.015 43.256C34.119 43.256 33.383 42.968 32.807 42.392C32.231 41.816 31.943 41.1333 31.943 40.344C31.943 39.5333 32.231 38.8613 32.807 38.328C33.383 37.7733 34.119 37.496 35.015 37.496C35.9323 37.496 36.6683 37.7733 37.223 38.328C37.799 38.8613 38.087 39.5333 38.087 40.344C38.087 41.1333 37.799 41.816 37.223 42.392C36.6683 42.968 35.9323 43.256 35.015 43.256Z" fill="black"/>
</svg>
