<svg width="58" height="66" viewBox="0 0 58 66" fill="none" xmlns="http://www.w3.org/2000/svg">
<path fill-rule="evenodd" clip-rule="evenodd" d="M56.1315 0.227208C55.6942 0.347801 53.1005 1.03954 50.3677 1.76435C47.6349 2.48925 44.4931 3.32269 43.3858 3.61657C41.2761 4.17645 41.0443 4.28018 40.963 4.70135C40.9412 4.81494 40.9571 4.99823 40.9985 5.10866C41.0399 5.21917 41.8591 6.08955 42.8188 7.04287L44.5637 8.77623L38.9214 14.3662C35.4706 17.7849 33.2521 19.9264 33.2096 19.8795C33.1479 19.8111 27.4731 13.1622 25.8502 11.2565C24.6165 9.808 23.9181 9.01079 23.8074 8.92454C23.6254 8.783 23.3353 8.74094 23.1106 8.82349C22.7899 8.94124 0.141356 31.4057 0.0415039 31.705C-0.0127946 31.8679 -0.0138289 32.018 0.0384822 32.1543C0.0816507 32.2669 0.960206 33.1935 1.99076 34.2136C3.84391 36.0478 3.86832 36.0683 4.20015 36.0683H4.53572L13.7745 26.9149C18.8557 21.8805 23.0265 17.7778 23.0426 17.7975C23.0588 17.8174 24.0531 18.9827 25.252 20.3872C26.451 21.7916 27.6645 23.2138 27.9487 23.5476C28.2329 23.8814 28.8105 24.5578 29.2322 25.0507C29.6538 25.5434 30.5399 26.584 31.2011 27.363C31.8624 28.142 32.4968 28.8278 32.6111 28.887C33.0933 29.1374 32.8485 29.3598 41.2051 21.0818L49.0952 13.2659L50.8246 14.9703C51.7757 15.9077 52.6321 16.714 52.7276 16.7619C53.1218 16.9596 53.651 16.748 53.7828 16.3401C53.8253 16.2085 54.1828 14.8956 54.5772 13.4226C55.4761 10.0649 55.6072 9.57855 55.7448 9.09043C55.8836 8.59782 56.4252 6.60863 56.6348 5.82158C56.7214 5.49667 57.067 4.20906 57.4031 2.9602C57.9418 0.957618 58.0028 0.662949 57.9193 0.463195C57.7964 0.169078 57.5146 -0.0090938 57.1876 0.000358286C57.044 0.00445419 56.5687 0.106536 56.1315 0.227208ZM55.7309 3.26818C55.5301 4.00103 54.9898 6.00078 54.5303 7.712C54.0708 9.42322 53.6467 11.0005 53.5879 11.2171C53.5292 11.4338 53.3138 12.2313 53.1094 12.9894C52.9048 13.7476 52.7119 14.4134 52.6808 14.4691C52.6424 14.5375 52.1488 14.096 51.158 13.1074C50.3517 12.3028 49.5954 11.5926 49.4773 11.5293C48.9479 11.2452 49.4122 10.8267 40.9041 19.2549L32.9889 27.0957L31.1247 24.9079C30.0993 23.7047 29.0449 22.4714 28.7815 22.1673C28.5181 21.8632 27.2355 20.3643 25.9314 18.8364C24.6273 17.3085 23.4873 16.0198 23.3983 15.9726C23.3093 15.9253 23.1082 15.9074 22.9514 15.9325C22.7004 15.9729 21.5715 17.0632 13.4416 25.1179L4.21684 34.2575L3.04517 33.0947L1.87358 31.9319L12.6093 21.2988C21.7205 12.2748 23.3596 10.6842 23.4407 10.7874C23.4934 10.8543 24.0194 11.4713 24.6097 12.1585C25.2 12.8457 26.1838 13.9988 26.796 14.721C27.4081 15.4431 28.3919 16.5942 28.9822 17.2791C29.5725 17.964 30.1628 18.6566 30.294 18.8182C30.9946 19.6814 32.6705 21.5878 32.8198 21.6915C32.9148 21.7574 33.1185 21.8114 33.2725 21.8114C33.5373 21.8114 33.8968 21.4701 39.9725 15.4503L46.3927 9.08932V8.74645C46.3927 8.40649 46.3796 8.39042 44.8629 6.87777C44.0215 6.03866 43.3225 5.32086 43.3097 5.28273C43.2968 5.24461 43.6722 5.11252 44.1439 4.98917C44.6156 4.86582 47.4878 4.10461 50.5267 3.29772C53.5656 2.49075 56.0619 1.85415 56.0741 1.88313C56.0862 1.91204 55.9318 2.53533 55.7309 3.26818ZM42.938 25.3988L42.7357 25.5994V45.5693V65.5394L42.9681 65.7696L43.2005 65.9999H50.2861C57.9813 65.9999 57.6992 66.0159 57.9047 65.5688C57.9775 65.4104 57.9997 60.7521 57.9997 45.5915C57.9997 24.23 58.0243 25.501 57.6066 25.2795C57.505 25.2255 55.0535 25.1984 50.297 25.1984H43.1405L42.938 25.3988ZM56.4285 34.9064C56.44 39.4227 56.4402 47.9296 56.4287 53.8106L56.4081 64.5033H50.3271H44.2462V45.5991V26.6949H50.3269H56.4076L56.4285 34.9064ZM22.0935 33.3246C21.9994 33.3701 21.8636 33.5186 21.7918 33.6547C21.6716 33.8823 21.663 35.1737 21.6845 49.7609L21.708 65.6196L21.931 65.8098L22.1541 65.9999H29.3108H36.4675L36.6998 65.7696L36.9322 65.5394V49.6267V33.7141L36.7404 33.493L36.5486 33.272L29.4065 33.257C24.5524 33.2468 22.2097 33.2685 22.0935 33.3246ZM30.8703 34.8069L35.4217 34.808V49.6556V64.5033H29.3002H23.1787V49.6574V34.8116L24.5898 34.7868C25.3659 34.7732 26.0725 34.7718 26.16 34.7839C26.2474 34.7959 28.367 34.8063 30.8703 34.8069ZM1.82238 40.7763C1.72913 40.8512 1.61282 40.9899 1.56401 41.0845C1.43824 41.3282 1.43752 65.1604 1.56329 65.5179C1.74066 66.022 1.39078 65.9999 9.17669 65.9999H16.25L16.4946 65.7959L16.7392 65.592V53.322V41.0521L16.5297 40.8444L16.32 40.6368L9.15602 40.6385C2.4882 40.6401 1.98019 40.6497 1.82238 40.7763ZM15.2287 53.3183V64.5033H9.14696H3.06521V53.3183V42.1333H9.14696H15.2287V53.3183Z" fill="black"/>
</svg>
