<svg width="63" height="64" viewBox="0 0 63 64" fill="none" xmlns="http://www.w3.org/2000/svg">
<path fill-rule="evenodd" clip-rule="evenodd" d="M20.3311 0.849298C20.2085 0.943727 18.9748 3.32393 17.5896 6.13881L15.0711 11.2569V25.8759V40.495L14.2616 41.2525C13.3836 42.0744 12.861 42.9956 12.6209 44.1445C12.4816 44.8116 12.4288 44.8795 11.803 45.1948L11.134 45.5317L10.6721 45.0648L10.2103 44.598H5.50205H0.793746L0.396873 44.9992C0.132789 45.2663 0 45.5396 0 45.8167C0 46.0455 1.03461 49.9873 2.29909 54.576C4.32025 61.9114 4.64109 62.9567 4.95419 63.229C5.30979 63.5381 5.31834 63.5386 10.2691 63.5386H15.2278L15.6247 63.1374C16.1598 62.5965 16.137 62.229 15.4239 59.9015C15.1002 58.8447 14.8425 57.9716 14.8513 57.9613C15.0214 57.7644 19.2219 55.2008 19.5832 55.0734C20.0383 54.9131 20.5365 54.9658 24.4712 55.5906C31.0909 56.6418 32.0078 56.5362 35.4873 54.3229C36.468 53.699 39.9769 51.4411 43.2848 49.305L49.2991 45.4215H55.878C62.2759 45.4215 62.4644 45.414 62.7284 45.147C62.997 44.8755 63 44.6896 63 27.99V11.1073L60.5418 6.13277C59.1899 3.39667 57.9889 1.0501 57.8731 0.917923C57.6746 0.691322 56.6084 0.677734 39.1083 0.677734C24.4744 0.677734 20.5069 0.713969 20.3311 0.849298ZM38.2888 6.44227V10.5598H32.5862C27.0646 10.5598 26.8751 10.5684 26.6121 10.8343C26.4627 10.9853 26.3405 11.2323 26.3405 11.3833C26.3405 11.5343 26.4627 11.7813 26.6121 11.9323C26.865 12.188 27.0646 12.2068 29.5312 12.2068H32.1789V15.7067C32.1789 19.0236 32.1931 19.221 32.4504 19.4811C32.7146 19.7482 32.903 19.7556 39.3673 19.7556H46.0127L46.2239 19.4505C46.4018 19.194 46.4353 18.594 46.4353 15.6761V12.2068H53.903H61.3707V27.9907V43.7745H53.6994H46.028V38.6728C46.028 34.1181 46.004 33.544 45.8033 33.32C45.3779 32.8448 44.9114 33.0011 44.0595 33.9038L43.2716 34.7389L42.4659 33.9038C41.4233 32.8234 41.235 32.8222 40.1362 33.8889L39.2915 34.7087L38.4889 33.8889C37.9579 33.3465 37.5775 33.0689 37.3648 33.0689C37.1568 33.0689 36.7452 33.3584 36.1987 33.8889L35.354 34.7087L34.5514 33.8889C33.6561 32.9742 33.1729 32.8323 32.7976 33.3741C32.6155 33.6366 32.5862 34.3802 32.5862 38.7268V43.7745H30.1444H27.7026L29.2078 40.7207L30.7129 37.6668L30.6548 36.6214C30.5675 35.0528 29.8404 33.9682 28.445 33.3252C27.6457 32.9569 26.3172 32.9867 25.4555 33.3923C24.7241 33.7367 24.3575 34.1295 22.0419 37.0498C21.2933 37.9938 20.4421 38.9319 20.1502 39.1346C19.5466 39.5538 18.7758 39.7603 17.549 39.8313L16.7004 39.8804V26.0436V12.2068H19.3481C21.8147 12.2068 22.0143 12.188 22.2672 11.9323C22.5869 11.6092 22.6132 11.2642 22.3464 10.8948C22.1719 10.6531 21.9283 10.6221 19.7261 10.5598L17.2981 10.4912L19.2735 6.40878L21.2489 2.32639L29.7689 2.32557L38.2888 2.32474V6.44227ZM58.826 6.37419C59.9268 8.6015 60.8276 10.4544 60.8276 10.4917C60.8276 10.5292 56.123 10.5598 50.3728 10.5598H39.9181V6.44227V2.32474H48.3712H56.8244L58.826 6.37419ZM44.806 15.1577V18.1086H39.3071H33.8082V15.1577V12.2068H39.3071H44.806V15.1577ZM20.048 15.6146C19.7554 15.9414 19.7472 17.1143 20.0347 17.529C20.17 17.7244 20.3869 17.8341 20.6379 17.8341C21.1785 17.8341 21.4526 17.3923 21.4526 16.5209C21.4526 16.0141 21.3833 15.7545 21.2043 15.5907C20.8764 15.2907 20.3278 15.3021 20.048 15.6146ZM20.0948 19.0694C19.8336 19.3334 19.8233 19.5268 19.8233 24.1476C19.8233 28.7685 19.8336 28.9618 20.0948 29.2259C20.2442 29.3769 20.4886 29.5004 20.6379 29.5004C20.7873 29.5004 21.0317 29.3769 21.181 29.2259C21.4423 28.9618 21.4526 28.7685 21.4526 24.1476C21.4526 19.5268 21.4423 19.3334 21.181 19.0694C21.0317 18.9184 20.7873 18.7948 20.6379 18.7948C20.4886 18.7948 20.2442 18.9184 20.0948 19.0694ZM28.0729 34.9898C28.6793 35.3634 29.0549 36.0331 29.0555 36.7415C29.0559 37.2156 28.736 37.9725 27.3588 40.755C26.4254 42.6411 25.6616 44.3496 25.6616 44.5519C25.6616 44.7541 25.7628 45.0324 25.8863 45.1705C26.1002 45.4094 26.6008 45.4217 36.2393 45.4232L46.3675 45.4248L45.7565 45.8201C39.9101 49.6027 33.6059 53.6177 33.1293 53.8619C31.259 54.8202 30.1716 54.8297 24.517 53.9368C19.0063 53.0668 19.6026 52.9843 16.323 55.0692C15.2565 55.747 14.3625 56.2779 14.3362 56.2487C14.2482 56.1512 11.5176 47.1835 11.5635 47.1432C11.5885 47.1212 11.9555 46.9333 12.3792 46.7257C13.5013 46.1756 14.1207 45.6194 14.1207 45.162C14.1207 44.3832 14.5421 43.3412 15.1081 42.7206C15.9246 41.825 16.5143 41.5703 18.0917 41.4318C19.4675 41.311 20.4222 40.9872 21.3308 40.3332C21.555 40.1718 22.6455 38.916 23.7541 37.5424C24.8629 36.1686 25.9135 34.9749 26.0892 34.8897C26.6088 34.6372 27.5803 34.6862 28.0729 34.9898ZM38.2316 35.9512C38.6982 36.4041 39.1822 36.7747 39.3071 36.7747C39.432 36.7747 39.9161 36.4041 40.3826 35.9512C40.8493 35.4983 41.2795 35.1277 41.3387 35.1277C41.3979 35.1277 41.7592 35.4641 42.1418 35.8752C43.0525 36.854 43.4386 36.9526 43.9866 36.3461L44.3987 35.89V39.8323V43.7745H39.3071H34.2155V39.8486V35.9228L34.6955 36.3487C34.9594 36.583 35.271 36.7747 35.3878 36.7747C35.5047 36.7747 35.9761 36.4054 36.4355 35.9538C36.8946 35.5023 37.2959 35.1317 37.3268 35.1303C37.3578 35.1289 37.765 35.4983 38.2316 35.9512ZM11.8026 53.7938C13.0517 57.9079 14.1191 61.4129 14.1743 61.5828L14.2748 61.8916H10.1244C7.84173 61.8916 5.97414 61.8631 5.97414 61.8281C5.97414 61.7931 5.0271 58.3291 3.86961 54.1304C2.71212 49.9316 1.76509 46.4387 1.76509 46.3685C1.76509 46.2918 3.31809 46.2553 5.64828 46.2773L9.53146 46.3136L11.8026 53.7938ZM7.9046 57.3161C6.69592 57.9184 6.34969 59.6061 7.20861 60.7098C8.15402 61.9248 10.1772 61.7389 10.8663 60.3735C11.4179 59.2804 11.0997 58.1094 10.058 57.4C9.50648 57.0242 8.5642 56.9875 7.9046 57.3161ZM9.36704 58.9389C9.46317 59.056 9.49806 59.2902 9.44905 59.4879C9.38184 59.7587 9.27729 59.8329 8.96338 59.8329C8.46875 59.8329 8.19828 59.4245 8.4181 59.0094C8.58932 58.6859 9.12658 58.6461 9.36704 58.9389Z" fill="black"/>
</svg>
