<svg width="62" height="62" viewBox="0 0 62 62" fill="none" xmlns="http://www.w3.org/2000/svg">
<path fill-rule="evenodd" clip-rule="evenodd" d="M12.7786 0.75583C7.95553 1.5486 4.51304 5.43843 4.51304 10.0957C4.51304 11.3321 4.66122 12.1761 5.13892 13.6605C5.7135 15.4464 6.13686 15.905 6.91553 15.5849C7.42654 15.3747 7.53363 14.9442 7.25199 14.2323C6.38738 12.0464 6.13857 10.1118 6.51149 8.47296C7.30256 4.99604 10.5094 2.46047 14.1157 2.46047C17.6766 2.46047 20.9082 4.95884 21.7204 8.33972C22.0169 9.57346 21.9065 11.5815 21.4689 12.9157C20.8125 14.9173 19.6738 16.8266 17.8183 19.0368C16.7301 20.3332 14.3429 22.662 14.1022 22.662C13.8669 22.662 10.8659 19.6297 9.92651 18.4425C9.46097 17.8542 8.99603 17.3077 8.89331 17.2281C8.43129 16.8697 7.63524 17.1884 7.49048 17.7897C7.40223 18.1563 7.75971 18.7075 9.11624 20.2967C10.2734 21.6524 13.0706 24.3052 13.6829 24.6275C14.1106 24.8527 14.1212 24.8526 14.5715 24.6204C15.1335 24.3307 18.6951 20.8858 19.607 19.75C22.4041 16.2659 23.7219 13.1658 23.7163 10.0824C23.7116 7.55943 22.9014 5.56026 21.1267 3.69242C19.7131 2.20469 18.0202 1.28557 15.9137 0.86185C15.0502 0.688201 13.5073 0.636022 12.7786 0.75583ZM13.2809 5.90744C10.8186 6.40343 9.2339 8.89502 9.91788 11.1954C10.3264 12.5696 11.2266 13.5464 12.5754 14.0792C13.5669 14.4707 14.9504 14.4232 15.9628 13.9627C16.8447 13.5617 17.6915 12.7346 18.1062 11.8693C18.3824 11.293 18.4307 11.0333 18.4307 10.1226C18.4308 9.19252 18.3848 8.95528 18.0777 8.30514C17.2608 6.57529 15.1653 5.52781 13.2809 5.90744ZM14.8623 7.70515C17.0034 8.33235 17.3029 11.2619 15.3312 12.2917C14.8764 12.5293 14.6487 12.5703 13.9793 12.5355C12.9263 12.4807 12.3082 12.0848 11.8518 11.1724C11.2157 9.90138 11.6956 8.54772 13.0139 7.89401C13.7345 7.53661 14.1444 7.49477 14.8623 7.70515ZM49.7007 14.1083C46.3464 14.6605 43.065 17.2867 41.8387 20.4007C40.1545 24.6774 41.3496 29.3488 45.4578 34.5473C46.4514 35.8046 50.4835 39.7558 51.093 40.0695C51.5223 40.2904 51.5642 40.292 51.9729 40.1015C52.8804 39.6782 57.6776 34.8322 57.9937 34.0193C58.2177 33.4432 57.7832 32.8785 57.123 32.8874C56.7515 32.8924 56.6352 32.9929 55.545 34.2505C54.4504 35.5132 51.7755 38.1133 51.5712 38.1133C51.3231 38.1133 48.524 35.3729 47.3944 34.0238C44.3613 30.4017 42.9299 27.2744 42.9284 24.2665C42.9277 22.8141 43.1786 21.7645 43.8478 20.419C44.9079 18.2883 47.0437 16.6019 49.4417 16.0022C50.5755 15.7187 52.3717 15.6941 53.4691 15.9471C56.4414 16.6324 58.8365 18.7636 59.7726 21.5559C60.096 22.5209 60.1229 22.7371 60.1164 24.326C60.1102 25.8552 60.072 26.1688 59.7768 27.1092C59.5938 27.6922 59.1694 28.7472 58.8336 29.4538C58.2703 30.6389 58.2355 30.7636 58.3832 31.0647C58.6051 31.5173 59.0259 31.7046 59.4757 31.5513C60.0965 31.3397 61.3666 28.5639 61.8143 26.4407C62.0595 25.2781 62.0623 23.268 61.8204 22.1231C60.9858 18.1721 57.7258 14.9844 53.6852 14.1683C52.7318 13.9758 50.6927 13.945 49.7007 14.1083ZM50.5876 19.7015C49.2996 19.9483 47.9032 21.0175 47.3189 22.2039C46.7136 23.4333 46.7334 25.0674 47.3683 26.2735C48.8373 29.0644 52.6019 29.6535 54.8862 27.4497C56.7094 25.6908 56.7094 22.7234 54.8862 20.9644C53.73 19.849 52.1853 19.3952 50.5876 19.7015ZM52.4515 21.4991C53.4961 21.8008 54.4712 23.1083 54.4712 24.2071C54.4712 25.7776 52.9213 27.1818 51.3615 27.0245C49.771 26.8639 48.7052 25.7332 48.7061 24.2071C48.707 22.2609 50.529 20.9436 52.4515 21.4991ZM15.3865 24.6177C14.756 25.2341 15.0835 25.8272 16.3152 26.2998C17.1109 26.605 17.2047 26.6174 17.4996 26.4555C17.9187 26.2254 18.0946 25.7411 17.906 25.3361C17.75 25.0014 16.4517 24.3262 15.9639 24.3261C15.8104 24.326 15.5506 24.4573 15.3865 24.6177ZM19.8412 26.5119C19.646 26.715 19.5794 26.9086 19.6072 27.1915C19.6511 27.6348 20.0633 27.9703 20.9883 28.3157C21.67 28.5703 22.1797 28.406 22.3708 27.8698C22.572 27.3056 22.2902 26.9175 21.4074 26.5431C20.4898 26.154 20.1907 26.148 19.8412 26.5119ZM24.4106 28.2614C24.0741 28.4528 23.9256 28.9463 24.0885 29.331C24.2297 29.6642 25.2099 30.2098 25.9151 30.3477C26.6428 30.4901 27.1936 29.3957 26.6405 28.9062C26.3127 28.6162 25.2098 28.1285 24.8915 28.1329C24.7477 28.135 24.5313 28.1927 24.4106 28.2614ZM28.7232 30.3061C28.5687 30.4669 28.4589 30.7349 28.4589 30.9513C28.4589 31.4051 28.8142 31.7045 29.7662 32.0527C30.5672 32.3458 31.0242 32.2392 31.2496 31.7067C31.4898 31.1398 31.2436 30.7783 30.3458 30.3803C29.396 29.9592 29.0709 29.9443 28.7232 30.3061ZM33.2839 32.0648C32.9493 32.2551 32.7988 32.7496 32.9599 33.1297C33.0573 33.3594 33.3296 33.5563 33.9171 33.8209C34.8873 34.2582 35.011 34.2683 35.4318 33.9447C35.6605 33.7688 35.7521 33.5879 35.7521 33.3118C35.7521 32.8448 35.4405 32.5367 34.6123 32.1848C33.9589 31.9071 33.6157 31.8761 33.2839 32.0648ZM37.5965 34.1095C37.0105 34.7196 37.3423 35.3344 38.5027 35.7886C39.4509 36.1598 39.8821 36.079 40.1345 35.4829C40.3671 34.934 40.1371 34.5979 39.2471 34.1863C38.3317 33.7628 37.9469 33.7449 37.5965 34.1095ZM8.76739 34.1312C7.14818 34.4498 5.17283 35.3582 4.26714 36.2006C3.60942 36.8123 3.61842 37.3679 4.29157 37.7083C4.69659 37.9131 4.74958 37.8933 6.29841 36.9614C7.6553 36.1448 8.80507 35.8244 10.6009 35.7622C12.4578 35.6981 13.6223 35.9375 15.2097 36.7104C16.0485 37.1187 16.4611 37.4266 17.4028 38.3468C18.7098 39.6238 19.3658 40.6929 19.8525 42.3395C20.2546 43.6997 20.2275 45.7924 19.787 47.3977C19.2924 49.2001 18.4023 51.0357 17.1223 52.8926C15.9955 54.5276 13.6619 57.1271 11.9842 58.6166L10.9618 59.5242L9.24278 57.8816C4.29753 53.1559 1.83888 48.7804 1.83888 44.7053C1.83888 43.1091 2.07859 42.1198 2.86005 40.4905C3.23309 39.7128 3.25181 39.4198 2.95182 39.0575C2.67128 38.7188 2.06619 38.6981 1.70019 39.0146C1.30332 39.3579 0.635757 40.8587 0.309145 42.142C-0.670934 45.9915 0.69471 50.5372 4.18716 55.0504C5.4084 56.6287 7.2199 58.5559 8.7748 59.9307C10.3515 61.325 10.625 61.5173 11.0402 61.524C11.4034 61.5297 12.529 60.6064 14.4272 58.746C17.2293 55.9997 19.1221 53.5058 20.3725 50.9124C21.5383 48.4949 21.9194 46.9785 21.9312 44.7099C21.9399 43.0134 21.7897 42.21 21.1696 40.6376C19.9049 37.4309 16.7658 34.8716 13.1881 34.1305C12.1644 33.9184 9.84689 33.9188 8.76739 34.1312ZM42.066 35.9554C41.7287 36.2226 41.6958 36.8208 42.0005 37.15C42.2134 37.3801 43.0866 37.7921 43.6582 37.9322C44.1235 38.0462 44.6254 37.6158 44.6254 37.1029C44.6254 36.6122 44.393 36.3746 43.5612 36.0149C42.7844 35.679 42.4327 35.665 42.066 35.9554ZM46.4699 37.9129C45.8794 38.5277 46.2067 39.121 47.3943 39.5885C48.2014 39.9062 48.2527 39.912 48.6173 39.7277C49.4418 39.3108 49.2217 38.4908 48.1461 37.9729C47.3061 37.5684 46.8177 37.5509 46.4699 37.9129ZM9.53147 40.0632C8.37343 40.4294 7.12156 41.4582 6.60983 42.4644C5.93922 43.783 5.91491 45.3949 6.54601 46.7037C8.01668 49.7544 12.1941 50.4198 14.532 47.9757C16.8328 45.5705 16.093 41.7439 13.0552 40.3372C12.3431 40.0073 12.0836 39.9521 11.1377 39.9284C10.47 39.9119 9.8441 39.9643 9.53147 40.0632ZM48.9433 41.1178C48.0548 41.5862 47.7972 41.9642 48.0154 42.4793C48.1912 42.894 48.6109 43.1196 49.0194 43.0189C49.5 42.9004 50.5794 42.2614 50.7139 42.0158C50.997 41.4985 50.5156 40.7234 49.9162 40.7315C49.7807 40.7334 49.343 40.9072 48.9433 41.1178ZM12.114 41.8513C12.7999 42.1315 13.3261 42.591 13.6712 43.211C14.3643 44.4561 14.1706 45.8192 13.1607 46.8069C11.5813 48.3512 8.96394 47.8225 8.09265 45.7834C7.88467 45.2966 7.86461 44.3032 8.04962 43.6515C8.21444 43.0711 9.30319 41.9771 9.87631 41.816C10.5004 41.6404 11.642 41.6585 12.114 41.8513ZM44.5808 43.3711C43.815 43.7772 43.5773 44.1013 43.6986 44.5739C43.8905 45.3219 44.5736 45.442 45.543 44.8983C46.3103 44.468 46.4892 44.2591 46.4892 43.7936C46.4892 43.354 46.0878 42.9849 45.6147 42.9897C45.4384 42.9913 44.9731 43.163 44.5808 43.3711ZM40.3104 45.605C39.5967 46.0141 39.3987 46.246 39.3987 46.673C39.3987 47.048 39.8546 47.503 40.2304 47.503C40.6144 47.503 41.9184 46.8343 42.0682 46.5605C42.2865 46.1617 42.219 45.6316 41.9242 45.4298C41.5244 45.156 40.9933 45.2136 40.3104 45.605ZM36.3598 47.6912C35.4554 48.1011 35.1443 48.4059 35.1443 48.882C35.1443 49.2907 35.5921 49.7613 35.9812 49.7613C36.2126 49.7613 37.3477 49.1898 37.6968 48.8976C38.1597 48.51 37.9005 47.6313 37.2715 47.4558C37.1339 47.4176 36.7382 47.5197 36.3598 47.6912ZM31.8426 50.0323C30.9302 50.4942 30.664 50.8834 30.9137 51.3913C31.0009 51.5686 31.2129 51.7909 31.3849 51.8852C31.6697 52.0412 31.7585 52.0291 32.3854 51.7485C33.6424 51.1858 34.0017 50.5349 33.3873 49.9342C32.9954 49.5509 32.7648 49.5655 31.8426 50.0323ZM27.6565 52.2034C26.9796 52.5474 26.5141 53.0016 26.5141 53.3176C26.5141 53.4359 26.6275 53.6736 26.7661 53.8458C27.1046 54.2667 27.5774 54.2523 28.4567 53.794C29.442 53.2804 29.6769 52.7243 29.1329 52.1925C28.7538 51.8217 28.4023 51.8243 27.6565 52.2034ZM23.2061 54.521C22.227 55.0152 22.0183 55.4909 22.5117 56.1041C22.6616 56.2906 22.8844 56.4173 23.0621 56.4173C23.4135 56.4173 24.6935 55.8091 24.931 55.5292C25.193 55.2206 25.1354 54.6286 24.8191 54.3782C24.4358 54.0746 24.0171 54.1117 23.2061 54.521ZM19.2209 56.6054C18.3164 57.0154 18.0054 57.3201 18.0054 57.7963C18.0054 58.2055 18.4544 58.6767 18.8423 58.6744C19.1412 58.6726 20.2615 58.1335 20.5475 57.8538C20.8632 57.5451 20.8853 56.883 20.5884 56.628C20.2044 56.2983 19.9091 56.2934 19.2209 56.6054ZM14.771 58.9243C13.9172 59.3628 13.751 59.5473 13.751 60.0566C13.751 60.3305 13.8432 60.512 14.0713 60.6874C14.2475 60.8229 14.4526 60.9334 14.5272 60.9326C14.772 60.9306 15.9939 60.3292 16.2733 60.0733C16.6632 59.716 16.6413 59.1221 16.2265 58.8031C15.8003 58.4752 15.6158 58.4906 14.771 58.9243Z" fill="black"/>
</svg>
